<svg xmlns="http://www.w3.org/2000/svg" xmlns:xlink="http://www.w3.org/1999/xlink" width="1107.444" height="1080" viewBox="0 0 1107.444 1080">
  <defs>
    <linearGradient id="linear-gradient" y1="0.5" x2="0.999" y2="0.5" gradientUnits="objectBoundingBox">
      <stop offset="0" stop-color="#87b62c"/>
      <stop offset="0.361" stop-color="#009ada"/>
      <stop offset="1" stop-color="#224091"/>
    </linearGradient>
    <linearGradient id="linear-gradient-2" x1="0" y1="0.5" x2="1" y2="0.5" xlink:href="#linear-gradient"/>
  </defs>
  <g id="logo" transform="translate(-272.066 -62)">
    <path id="Path_811" data-name="Path 811" d="M2362.194-555.9c.449-2.733.789-4.869,0,0Z" transform="translate(-2090.128 932.318)" opacity="0.12" fill="url(#linear-gradient)"/>
    <path id="Path_812" data-name="Path 812" d="M3245.582-803.345c-4.567-16.181-20.957-28.107-38.149-23.606-180.207,47.173-362.316,88.42-546.416,117.323q-60.092,9.434-120.483,16.808-27.821,3.351-55.7,6.158-3.4.34-6.8.671a19.607,19.607,0,1,0-2.06.212c-3.218.307-6.44.577-9.656.862-4.94.441-9.886.821-14.829,1.23,1.481-25.747,2.009-51.542,1.318-77.32-1.334-49.771-6.61-100.112-19.631-148.3h-65.977q3.4,11.087,6.234,22.339a544.579,544.579,0,0,1,12.785,72.45c.306,2.754,1.309,14.506.32,2.582.264,3.185.573,6.366.826,9.552q.768,9.658,1.269,19.336,1.033,19.739,1.064,39.514c.062,21.427-.685,42.851-2.056,64.234-45.825,2.41-91.762,3.132-137.587.974-25.768-1.214-51.517-3.363-77.059-7.025q-4.395-.631-8.781-1.323c-2.888-.456-13.681-2.768-1.616-.217-5.928-1.253-11.926-2.2-17.856-3.464-1.55-.331-3.094-.684-4.64-1.029V-627.1q10.82,2.045,21.688,3.758c55.618,8.793,112.316,10.4,168.529,9.332q25.749-.489,51.475-1.791-2.384,20.147-5.359,40.219-1.451,9.791-3.032,19.559-.865,5.348-1.768,10.689c-.3,1.783-.623,3.563-.912,5.349.175-1.083.31-1.916.425-2.621-.194,1.178-.41,2.474-.533,3.164q-3.825,21.478-8.2,42.856c-11.625,56.942-25.917,113.327-42.047,169.156-28.719,99.4-63.177,197.143-101.627,293.188q-20.421,51.012-42.473,101.356-7.468,17.015-15.158,33.932-2.81,6.177-5.66,12.337-.706,1.526-1.416,3.05c-.937,1.987-1.872,3.977-2.828,5.956-7.192,14.888-6.3,34.51,9.715,43.76,13.431,7.758,36.106,6.235,43.807-9.7,18.965-39.257,36.348-79.328,53.2-119.523,37.915-90.43,72.193-182.45,101.9-275.9,36.512-114.868,66.329-232.354,82.524-351.909q1.969-14.536,3.625-29.123c34.068-2.752,68.078-6.245,101.994-10.25,178.245-21.047,354.72-56.853,529.154-98.63q72.61-17.391,144.831-36.345C3237.985-769.434,3250.315-786.573,3245.582-803.345Z" transform="translate(-1867.096 971.31)" opacity="0.341" fill="url(#linear-gradient-2)"/>
  </g>
</svg>
