<svg xmlns="http://www.w3.org/2000/svg" width="30.204" height="30.227" viewBox="0 0 30.204 30.227">
  <path id="whitelookicon" d="M-3286.03,305.311a3.456,3.456,0,0,1,.988-1.575q3.431-3.407,6.839-6.836a2.9,2.9,0,0,1,1.775-.9,2.681,2.681,0,0,1,.788.066.427.427,0,0,0,.423-.125c.515-.513,1.031-1.026,1.561-1.524.17-.16.149-.272.023-.444a9.226,9.226,0,0,1-1.742-3.957,9.633,9.633,0,0,1,3.573-9.68,9.455,9.455,0,0,1,6.908-2.1,9.816,9.816,0,0,1,8.967,8.378,9.944,9.944,0,0,1-5.127,10.235,9.6,9.6,0,0,1-3.879,1.108,9.846,9.846,0,0,1-6.139-1.553c-.191-.12-.373-.256-.551-.394a.21.21,0,0,0-.328.026q-.8.809-1.6,1.606a.389.389,0,0,0-.111.4,2.537,2.537,0,0,1-.75,2.474q-3.579,3.592-7.168,7.174a2.927,2.927,0,0,1-1.32.737h-1.062a4.691,4.691,0,0,1-.763-.3,2.819,2.819,0,0,1-1.3-1.706Zm27.87-17.219a7.513,7.513,0,0,0-7.4-7.521,7.489,7.489,0,0,0-7.65,7.532,7.481,7.481,0,0,0,7.35,7.5A7.5,7.5,0,0,0-3258.16,288.092Z" transform="translate(3286.03 -278.209)" fill="#fff"/>
</svg>
